<?xml version="1.0" encoding="utf-8"?>
<!-- Generator: Adobe Illustrator 22.1.0, SVG Export Plug-In . SVG Version: 6.00 Build 0)  -->
<svg version="1.1" id="Layer_1" xmlns="http://www.w3.org/2000/svg" xmlns:xlink="http://www.w3.org/1999/xlink" x="0px" y="0px"
	 viewBox="0 0 68.8 61" style="enable-background:new 0 0 68.8 61;" xml:space="preserve">
<style type="text/css">
	.st0{fill:#16FF7D;}
	.st1{filter:url(#Adobe_OpacityMaskFilter);}
	.st2{fill:#FFFFFF;}
	.st3{mask:url(#mask-2_2_);fill:#1D1D1B;}
	.st4{fill:#1D1D1B;}
</style>
<g>
	<path id="Fill-41_1_" class="st0" d="M61.1,31.3c0-14.4-11.7-26-26-26S9,16.9,9,31.3s11.7,26,26,26S61.1,45.7,61.1,31.3"/>
	<g id="Group-45_1_" transform="translate(0.000000, 18.977866)">
		<g id="Clip-44_1_">
		</g>
		<defs>
			<filter id="Adobe_OpacityMaskFilter" filterUnits="userSpaceOnUse" x="0" y="0.4" width="68.8" height="41.4">
				<feColorMatrix  type="matrix" values="1 0 0 0 0  0 1 0 0 0  0 0 1 0 0  0 0 0 1 0"/>
			</filter>
		</defs>
		<mask maskUnits="userSpaceOnUse" x="0" y="0.4" width="68.8" height="41.4" id="mask-2_2_">
			<g class="st1">
				<polygon id="path-1_2_" class="st2" points="0,0.4 0,41.8 34.4,41.8 68.8,41.8 68.8,0.4 				"/>
			</g>
		</mask>
		<path id="Fill-43_1_" class="st3" d="M31.1,21.6c-4.3-1.9-8.9-3.6-13.8-5l10.3-7.7l4.7,3.3c-0.8,1.1-1.3,2.3-1.6,3.6
			C30.2,17.8,30.3,19.8,31.1,21.6 M68.2,15.2L48.3,0.7c-0.5-0.4-1.2-0.4-1.7,0L34.1,10l-5.8-4.1c-0.5-0.4-1.2-0.4-1.7,0l-12.9,9.7
			c-3.8-1-7.9-1.9-12-2.6c-0.8-0.1-1.5,0.4-1.7,1.2c-0.2,0.8,0.3,1.5,1.1,1.7l12.4,2.8c30.2,8.2,40,22.4,40.1,22.5
			c0.3,0.4,0.7,0.7,1.2,0.7c0.3,0,0.6-0.1,0.8-0.2c0.3-0.2,0.5-0.5,0.6-0.9c0.1-0.4,0-0.8-0.2-1.1C55.9,39.2,51,32,37.7,24.8
			c-3.5-2.4-4.9-5.2-4.2-8.4c0.4-1.8,1.5-3.5,3.1-4.7l10.8-8.1l19,13.9c0.7,0.5,1.6,0.3,2-0.3C69,16.6,68.9,15.6,68.2,15.2"/>
	</g>
	<path id="Fill-46_1_" class="st4" d="M20.8,2.9c3.6,0,6.5,2.9,6.5,6.5c0,3.6-2.9,6.5-6.5,6.5c-3.6,0-6.5-2.9-6.5-6.5
		C14.3,5.9,17.2,2.9,20.8,2.9 M20.8,18.7c5.1,0,9.3-4.2,9.3-9.3c0-5.1-4.2-9.3-9.3-9.3c-5.1,0-9.3,4.2-9.3,9.3
		C11.6,14.6,15.7,18.7,20.8,18.7"/>
</g>
</svg>
